<svg t="1584601008832" class="icon" viewBox="0 0 1024 1024" version="1.1" xmlns="http://www.w3.org/2000/svg" p-id="619" width="200" height="200"><path d="M779.840164 902.570393c-4.067642 0-8.135284-0.855484-11.965519-2.609431l-240.340857-110.056582-240.326531 110.056582c-9.44 4.348028-20.577664 3.226484-28.994358-2.973728-8.402367-6.185886-12.792351-16.439414-11.460006-26.792203l32.82357-256.374018L98.585319 425.142793c-7.308453-7.616468-9.847276-18.61394-6.620791-28.65769 3.226484-10.057053 11.68411-17.520025 22.050202-19.469424l260.525572-48.870034L502.524185 101.523231c10.183943-18.038842 39.83731-18.038842 50.02023 0l127.983883 226.622414 260.539898 48.870034c10.366092 1.949398 18.824741 9.41237 22.050202 19.469424 3.226484 10.04375 0.687662 21.040199-6.620791 28.65769l-180.992167 188.679243 32.82357 256.374018c1.332345 10.351766-3.057639 20.606317-11.460006 26.792203C791.847639 900.676254 785.858228 902.570393 779.840164 902.570393zM527.534811 729.573317c4.081968 0 8.163937 0.86981 11.965519 2.609431l205.273177 94.010117L716.77585 607.495958c-1.108241-8.613168 1.739621-17.267269 7.756661-23.537066l153.73743-160.259984-221.474161-41.548278c-8.331759-1.570775-15.541975-6.733355-19.707854-14.111392l-109.553115-193.96769L417.997046 368.038214c-4.16588 7.378038-11.376095 12.540617-19.707854 14.111392l-221.474161 41.548278 153.73743 160.259984c6.018064 6.269797 8.864902 14.924921 7.756661 23.537066l-27.997658 218.696907 205.25885-94.010117C519.370875 730.443128 523.452843 729.573317 527.534811 729.573317z" p-id="620" fill="#2c2c2c"></path></svg>
