<svg t="1584512608407" class="icon" viewBox="0 0 1024 1024" version="1.1" xmlns="http://www.w3.org/2000/svg" p-id="13289" width="200" height="200"><path d="M509.02 945.828c-27.761 0-52.714-10.264-72.154-29.705L60.95 502.112c-15.574-15.493-47.465-62.958 17.252-141.225l112.132-207.631c31.311-61.31 80.974-98.419 132.416-98.419h402.781c68.573 0 106.629 52.307 132.121 97.87l139.964 272.227v10.081c0 18.535-13.57 69.112-31.382 86.894L603.125 903.916c-26.916 26.918-60.943 41.912-94.105 41.912zM122.84 446.377l374.329 412.271c2.279 2.209 6.368 3.846 11.851 3.846 10.742 0 24.262-6.57 34.454-16.754l360.881-379.659c2.522-5.239 6.154-16.021 8.28-24.18L784.227 192.104c-27.811-49.662-44.911-53.935-58.695-53.935H322.75c-21.515 0-44.963 27.039-58.645 53.833L144.528 411.485c-15.646 18.321-20.651 30.111-21.688 34.892z" p-id="13290" fill="#2c2c2c"></path><path d="M599.83 321.774l-81.787 224.548-78.288-224.548h-86.914L482.48 678.891h70.231l131.348-357.117H599.83z" p-id="13291" fill="#2c2c2c"></path></svg>
