<svg t="1584512375133" class="icon" viewBox="0 0 1024 1024" version="1.1" xmlns="http://www.w3.org/2000/svg" p-id="12842" width="200" height="200"><path d="M891.392 504.128 831.296 363.52l60.544-159.744c4.544-12.096 1.664-25.856-7.424-34.944-9.152-9.152-22.592-11.84-34.368-6.912-99.712 41.408-227.392 41.408-326.976 0-114.944-47.872-260.16-47.872-375.232 0C135.872 166.848 128 178.816 128 192l0 735.424C128 945.408 142.272 960 159.872 960c17.664 0 31.936-14.592 31.936-32.576l0-387.84c95.616-33.728 214.016-31.04 307.136 7.616 115.2 47.872 260.16 47.808 375.232 0 7.936-3.328 14.208-9.728 17.408-17.856C894.848 521.344 894.72 512.192 891.392 504.128zM523.072 486.976C465.536 463.04 402.432 450.944 335.424 450.944c-50.304 0-98.432 6.848-143.616 20.352L191.808 214.528c95.616-33.664 214.016-31.104 307.136 7.616 93.888 38.912 209.152 46.4 309.376 21.632l-41.216 108.8c-3.072 7.936-2.88 16.832 0.512 24.704l51.648 121.088C726.016 528.128 612.672 524.16 523.072 486.976z" p-id="12843" fill="#2c2c2c"></path></svg>
