<svg t="1584513488737" class="icon" viewBox="0 0 1028 1024" version="1.1" xmlns="http://www.w3.org/2000/svg" p-id="33246" width="200" height="200"><path d="M514.039841 354.68749c80.426837 0 143.425275-85.999681 143.425275-195.783904C657.465116 61.94996 603.837705 4.079681 514.039841 4.079681s-143.425275 57.870279-143.425275 154.823905c0 109.784223 62.998438 195.783904 143.425275 195.783904z m0-286.862789c54.378072 0 79.680255 28.945339 79.680255 91.078885 0 71.55761-36.47643 132.018486-79.680255 132.018486s-79.680255-60.460876-79.680255-132.018486c0-62.133546 25.302183-91.078884 79.680255-91.078885z m500.617689 519.30263l-63.74502-63.74502a31.862311 31.862311 0 0 0-45.06008 45.060079l54.40255 54.422949v50.526852h-127.571633c1.713466-60.073307-1.427888-172.019761-44.768383-218.670916-14.570582-15.727171-33.02706-24.029323-53.288797-24.029323l-7.127203 0.020399c-32.025498-0.244781-55.342916 0.305976-76.630693-30.434423a31.878629 31.878629 0 0 0-52.423904 36.288765c40.494916 58.400637 91.633721 57.747888 129.421768 57.890678l6.753913-0.020399c1.2749 0 3.206629 0 6.596844 3.630916 22.817657 24.559681 29.508335 108.968287 27.705116 175.324303H705.2749v-63.724621a31.87251 31.87251 0 1 0-63.74502 0v63.724621h-95.617529v-95.60733a31.87251 31.87251 0 1 0-63.74502 0v95.60733H386.549801v-63.724621a31.87251 31.87251 0 1 0-63.74502 0v63.724621h-63.653227c-1.803219-66.356016 4.895618-150.764622 27.705115-175.324303 3.390215-3.630916 5.321944-3.630916 6.596845-3.630916l6.753912 0.020399c37.006789-0.305976 88.896255 0.591554 129.389132-57.890678a31.87455 31.87455 0 0 0-52.413705-36.288765c-21.322454 30.781195-44.574598 30.250837-76.602136 30.434423l-7.127203-0.020399c-20.261737 0-38.718215 8.302151-53.288797 24.029323-43.332335 46.651155-46.485928 158.59761-44.776542 218.670916H67.824701v-50.526852l54.40663-54.422949a31.864351 31.864351 0 0 0-45.068239-45.060079l-63.74502 63.74502A31.862311 31.862311 0 0 0 4.079681 609.66757v191.214661a31.858231 31.858231 0 0 0 31.87251 31.882709H131.569721v159.372749A31.854151 31.854151 0 0 0 163.442231 1024H864.647649a31.854151 31.854151 0 0 0 31.862311-31.862311v-159.372749h95.627729A31.858231 31.858231 0 0 0 1024 800.882231v-191.214661a31.86639 31.86639 0 0 0-9.34247-22.540239z m-181.89259 373.127649H195.314741v-127.49004h637.450199v127.49004z m127.49004-191.23506H67.824701v-31.86231h892.430279V769.01992zM482.167331 482.17753h63.74502v-63.765418h-63.74502v63.765418z" p-id="33247" fill="#515151"></path></svg>
