<svg t="1578021308773" class="icon" viewBox="0 0 1024 1024" version="1.1" xmlns="http://www.w3.org/2000/svg" p-id="7921" width="32" height="32"><path d="M901.9 108c0 0-76.3-14.2-163.7-16.7-76-2.2-129.3 9.4-200.7 33.4-38 12.8-93.1 18.1-147.1 13.4-47.3-4.2-103.9-13.7-137.1-23.4-35-10.3-63.5-6.7-63.5-6.7-18.5 0-33.4 15-33.4 33.4l0 807.4c0 13.8 11.2 25.1 25.1 25.1s25.1-11.2 25.1-25.1L206.6 528.3c29.9 3.7 96.2 9.7 167.2 1 67.1-8.3 137.8-36.8 188.3-62.7 49.6-25.5 119.7-57 179.5-64.3 88.4-10.8 160.5 10 160.5 10 18.5 0 33.4-15 33.4-33.4L935.5 141.5C935.3 123 920.3 108 901.9 108zM885.2 328.7c0 18.5-15 33.4-33.4 33.4 0 0-52.6-19-117-13.4-56.2 4.9-121.2 32.5-172.8 57.7-55.7 27.2-134.8 60.5-201.6 69.3-66.1 8.8-120.4-6.7-120.4-6.7-18.5 0-33.4-15-33.4-33.4L206.6 205c0-18.5 15-33.4 33.4-33.4 0 0 64.1 14.2 150.4 16.7 47 1.4 105.3 6.5 152-13.6 69.3-29.8 134.3-37.4 194.4-34 65.4 3.7 115 17.6 114.9 17.4 18.5 0 33.4 15 33.4 33.4L885.1 328.7z" p-id="7922" fill="#2c2c2c"></path></svg>
