<svg t="1578019808875" class="icon" viewBox="0 0 1024 1024" version="1.1" xmlns="http://www.w3.org/2000/svg" p-id="3004" width="32" height="32"><path d="M514.206 125.442c-172.982 0-313.214 140.233-313.214 313.214 0 172.971 140.233 313.223 313.214 313.223 172.981 0 313.213-140.254 313.213-313.223 0-172.982-140.231-313.214-313.213-313.214zM514.206 732.304c-162.174 0-293.638-131.485-293.638-293.648 0-162.174 131.465-293.637 293.638-293.637 162.172 0 293.637 131.465 293.637 293.637 0.001 162.163-131.466 293.648-293.637 293.648zM951.177 878.064l-113.185-200.667-4.7-15.974 60.955-4.118-27.101-54.691 59.317-14.611-36.215-49.153 55.874-24.716-44.17-42.118 50.716-34.023-50.837-33.829 44.084-42.311-55.955-24.47 36.055-49.327-59.34-14.405 26.915-54.833-60.93-3.863 17.004-58.665-60.684 6.759 6.565-60.737-58.604 17.189-4.080-60.94-54.689 27.12-14.643-59.319-49.162 36.206-24.694-55.883-42.128 44.189-34.014-50.723-33.81 50.785-42.127-44.054-24.47 56.097-49.347-36.235-14.336 59.472-54.915-27.1-3.792 61.062-58.767-17.162 6.873 60.798-60.867-6.689 17.333 58.677-61.093 3.977 27.243 54.77-59.483 14.529 36.359 49.216-56.078 24.643 44.371 42.15-50.959 33.993 50.999 33.829-44.251 42.313 56.078 24.449-36.215 49.367 59.482 14.316-27.12 54.937 61.074 3.771-0.118 0.405-146.374 253.529 12.193 7.076 123.409-33.056 33.014 123.347 12.215 7.036 20.88-36.133 102.78-178.046 10.923 44.624 49.205-36.359 24.633 56.079 42.149-44.332 34.013 50.896 33.829-51.018 42.517 44.251 24.449-55.914 49.326 36.055 9.733-40.141 119.916 212.65 12.071-7.135 32.669-124.88 122.023 33.443 12.111-7.137-22.105-39.231zM237.147 924.597l-22.921-85.521-85.604 22.919 83.681-144.965 27.045-3.056-6.688 60.866 58.665-17.333 3.977 61.093 4.261-2.118-62.417 108.115zM514.206 793.644c-196.065 0-354.976-158.931-354.976-354.987s158.911-354.975 354.976-354.975c196.044 0 354.976 158.922 354.976 354.975s-158.931 354.987-354.976 354.987zM810.067 839.402l-22.676 86.582-63.709-112.982 10.323 5.069 3.855-60.929 58.668 16.986-6.771-60.665 22.218 2.386 82.758 146.758-84.666-23.207zM432.293 370.121c1.183 4.793 7.156 8.382 17.924 10.756 15.558-10.756 27.508-26.908 35.909-48.45 0-4.751-4.199-8.341-12.56-10.747-4.812-4.781-10.195-7.767-16.15-8.973-3.589 1.202-6.014 2.396-7.198 3.568-2.406 2.427-4.793 7.81-7.179 16.149v7.179c0 4.802-1.775 10.186-5.363 16.159-4.812 6.005-6.605 10.768-5.382 14.355zM333.578 348.597c2.386 3.58 5.975 9.585 10.787 17.935 3.589 5.995 6.565 10.176 8.973 12.572l5.383 1.775c9.543-1.172 14.928-6.546 16.13-16.149 0-11.94-1.773-24.491-5.383-37.673 0-7.179-4.201-11.95-12.541-14.346-19.169 5.995-30.508 11.97-34.095 17.934 1.183 9.594 4.751 15.559 10.747 17.954zM484.333 493.938c0-2.386-3.019-4.773-8.974-7.188v-1.775c-19.168-7.188-35.317-19.137-48.45-35.91v-12.541h10.767c0 1.202 1.163 1.785 3.589 1.785 17.945 1.202 26.917-0.582 26.917-5.373v-5.394c1.162-17.945-0.612-26.916-5.386-26.916h-35.888v-16.162c0-50.224 0.57-78.946 1.795-86.114v-1.805c2.366-4.772 3.588-8.973 3.588-12.561 1.183-9.562-4.22-13.743-16.149-12.56h-16.149c-3.588-1.183-6.015-1.795-7.179-1.795-5.995 1.202-8.401 3.588-7.198 7.187-1.204 4.782-0.611 10.165 1.814 16.141 1.162 7.187 1.773 12.56 1.773 16.16v5.374c0 22.736-0.611 39.477-1.773 50.235v35.901h-28.711c-4.812-1.183-8.993-1.795-12.56-1.795-4.812 0-9.605 0.611-14.355 1.795-1.223 1.202-1.814 2.405-1.814 3.588-1.204 2.427-1.775 4.22-1.775 5.382 0 3.6-0.633 8.382-1.795 14.356v8.982c0 5.995 2.957 8.381 8.973 7.167h19.718c9.564-2.378 17.967-3.58 25.143-3.58h1.794c-20.371 55.026-46.656 87.327-78.955 96.89 7.179 17.955 19.127 26.917 35.889 26.917 15.518 0 31.076-13.744 46.637-41.273 0 25.133-0.611 43.69-1.775 55.63v34.105l-1.795 5.362c0 5.994 2.957 8.973 8.973 8.973 1.163 0 3.569-0.611 7.179-1.795 3.589-1.183 6.566-1.183 8.973 0 1.163-1.183 3.589-1.183 7.179 0 2.366 1.184 4.773 1.795 7.18 1.795 5.954 0 7.748-5.383 5.383-16.149v-107.649c1.163 2.406 3.588 4.782 7.179 7.167 16.721 14.367 26.305 21.543 28.71 21.543 5.953-3.596 13.131-14.954 21.533-34.101zM705.049 395.243h-91.517v-16.14h73.573l1.793 1.775c4.773 0 7.179-1.775 7.179-5.374 0-1.172-0.61-2.387-1.794-3.589v-3.58c-1.226-2.396-1.226-5.985 0-10.777 1.184-7.187-3.017-10.756-12.581-10.756h-68.17v-16.159c17.943 0 31.669 0.611 41.251 1.786h30.509c5.975 1.213 8.992-0.581 8.992-5.374l-1.814-1.786c-1.201-1.183-1.201-2.386 0-3.589-1.201-2.396-1.201-5.985 0-10.775 1.202-9.554-2.998-14.356-12.541-14.356h-66.394c-1.223-1.183-0.611-2.966 1.794-5.383-1.223-1.172-1.223-3.588 0-7.179 1.162-2.386 1.794-4.761 1.794-7.167 1.184-8.361-3.588-13.162-14.375-14.366-4.793 2.405-10.747 2.998-17.925 1.795-3.609-1.183-5.994-1.795-7.179-1.795-6.014 0-8.401 2.405-7.178 7.179-1.226 9.594-0.633 18.556 1.794 26.916-4.812 0-11.399 0.611-19.74 1.805h-23.327c-4.813-1.193-9.605-1.805-14.355-1.805-17.945-1.183-25.735 5.383-23.328 19.729 0 2.427-0.633 4.802-1.795 7.198-1.223 2.396-1.223 4.201 0 5.383 0 3.568 2.956 5.383 8.974 5.383h8.973c5.953-1.183 10.767-1.814 14.354-1.814 3.568-1.172 10.768-1.786 21.534-1.786h26.917v16.159h-71.778c-1.226 1.204-1.795 2.406-1.795 3.569-3.588 3.598-4.812 6.606-3.588 8.982v16.149c0 6.005 2.956 8.381 8.973 7.179 7.179 0 14.355-1.172 21.534-3.58h46.656v16.14h-57.423c-4.812-1.172-8.973-1.795-12.56-1.795-2.427 0-5.405 0.621-8.973 1.795-4.812 1.202-7.79 1.202-8.974 0-5.995 5.995-8.381 17.364-7.179 34.095 0 4.793 2.366 7.188 7.179 7.188 2.366 1.202 6.565 0.602 12.541-1.805 4.773-1.172 8.993-1.785 12.582-1.785 13.131-1.172 25.122-2.397 35.888-3.6 7.179-1.172 21.534-1.795 43.067-1.795h1.794c15.518 0 32.87 1.223 52.019 3.6h23.347c2.365 1.202 7.18 2.405 14.356 3.579 11.929 2.406 20.923 3.589 26.915 3.589 14.336-2.386 22.695-14.355 25.123-35.899v-10.755c-8.4 3.588-16.78 4.793-25.122 3.588zM685.292 454.461c0-1.172-0.611-2.386-1.795-3.589-4.791-3.588-11.359-6.565-19.719-8.973-5.995 0-10.786 0.621-14.355 1.795h-111.257c-3.588-1.172-8.972-2.377-16.149-3.588-9.584 2.416-15.58 6.004-17.943 10.767-3.588 2.417-4.812 4.211-3.588 5.386-1.223 3.598 0 7.799 3.588 12.56 0 1.202 0.57 1.805 1.794 1.805 2.366 84.953-13.785 126.817-48.45 125.612l1.795 10.747 3.588 1.814c11.931 10.767 22.695 16.129 32.279 16.129 20.331-1.183 34.686-16.129 43.087-44.85h100.492v39.488c-1.226 2.387 1.773 3.568 8.972 3.568h26.918c3.588 0 5.974-1.183 7.155-3.568 0-10.767-0.593-28.731-1.775-53.834-1.222-27.518-1.793-48.469-1.793-62.816-1.227-15.538-0.612-28.090 1.793-37.673 3.568-5.989 5.363-9.569 5.363-10.781zM638.656 545.987h-93.314v-17.945h93.314v17.945zM638.656 497.526h-91.538v-17.943h91.538v17.943z" p-id="3005" fill="#2c2c2c"></path></svg>
