<svg t="1578031443369" class="icon" viewBox="0 0 1024 1024" version="1.1" xmlns="http://www.w3.org/2000/svg" p-id="10225" width="16" height="16"><path d="M818.688 946.176h-750.592v-444.928c0-25.088 20.48-45.568 45.568-45.568h324.096v-65.024h-224.256v-223.744c0-48.64 39.424-88.064 88.064-88.064h283.648c48.64 0 88.064 39.424 88.064 88.064 0 17.92 14.848 32.768 32.768 32.768 17.92 0 32.768-14.848 32.768-32.768 0-84.48-68.608-153.6-153.6-153.6h-283.648c-84.48 0-153.6 68.608-153.6 153.6v223.744h-34.304c-60.928 0-110.592 49.664-110.592 110.592v509.952h881.152v-352.768H819.2v287.744z" p-id="10226" fill="#cdcdcd"></path><path d="M600.448 655.45216l-90.86976-90.86976 372.5312-372.5312 90.87488 90.86976zM1019.392 220.672l-75.264-75.264c-4.096-4.096-11.264-4.096-15.36 0l-31.232 31.232 90.624 90.624 31.232-31.232c4.608-4.096 4.608-10.752 0-15.36zM492.544 581.632l-32.768 121.856 122.368-32.768z" p-id="10227" fill="#cdcdcd"></path><path d="M445.952 847.36c22.528 0 40.96-18.432 40.96-40.96v-87.552l-57.344 15.36 40.448-151.04c-8.192-3.072-17.408-5.12-27.136-5.12-40.96 0-73.728 33.28-73.728 73.728 0 26.624 14.336 50.176 35.328 62.976v91.648c0.512 22.528 18.944 40.96 41.472 40.96z" p-id="10228" fill="#cdcdcd"></path></svg>
