<svg t="1584513062190" class="icon" viewBox="0 0 1024 1024" version="1.1" xmlns="http://www.w3.org/2000/svg" p-id="19684" width="200" height="200"><path d="M439.55 804.86c-0.93 0-1.86-0.03-2.79-0.1a39.077 39.077 0 0 1-33.27-23.85l-87.68-208.54-210.88-27.95a39.073 39.073 0 0 1-32.35-27.67c-4.38-14.8 0.37-30.79 12.1-40.82l177.49-151.57-38.57-209.07a39.064 39.064 0 0 1 15.07-38.42c11.95-8.91 27.91-10.22 41.14-3.5l192.3 98.04L689.75 67.69c13.06-6.27 28.61-4.73 40.22 3.97a39.109 39.109 0 0 1 15.22 37.44l-33.6 211.93L867.1 468.86c10.79 10.26 14.81 25.75 10.41 39.96-4.43 14.2-16.55 24.68-31.23 27l-147.64 23.34c-21.2 3.47-41.36-11.17-44.72-32.51-3.39-21.33 11.17-41.35 32.51-44.72l69.39-10.97-113-107.41a39.096 39.096 0 0 1-11.68-34.47l25.2-158.84-167.98 80.04a38.967 38.967 0 0 1-34.58-0.46L314.88 179l28.28 153.33a39.083 39.083 0 0 1-13.06 36.82L202.17 478.42l146.14 19.37a39.093 39.093 0 0 1 30.9 23.6l66.48 158.13 45.3-75.5c11.12-18.51 35.17-24.53 53.63-13.41 18.52 11.1 24.53 35.13 13.41 53.63l-84.97 141.63a39.073 39.073 0 0 1-33.51 18.99z" p-id="19685" fill="#515151"></path><path d="M910.26 955.91c-10.84 0-21.61-4.48-29.35-13.24L489.92 499.55c-14.28-16.19-12.74-40.89 3.46-55.19 16.15-14.31 40.87-12.77 55.19 3.46l390.99 443.12c14.28 16.19 12.73 40.88-3.46 55.19a38.956 38.956 0 0 1-25.84 9.78z" fill="#515151" p-id="19686"></path></svg>
